<svg width="20" height="22" viewBox="0 0 20 22" fill="none" xmlns="http://www.w3.org/2000/svg">
<path d="M13.8051 0.73077C15.6398 0.461262 17.5764 1.28015 18.5447 2.73135C19.009 3.42585 19.2355 4.17219 19.2639 4.98071C19.2752 5.21394 19.4111 5.32796 19.6206 5.32278C19.8245 5.31241 19.9547 5.17248 19.9377 4.94443C19.9207 4.71639 19.9094 4.49352 19.8754 4.26548C19.5357 2.10423 17.5481 0.331691 15.1641 0.103645C13.3124 -0.0777547 11.7439 0.471628 10.4811 1.72588C10.3679 1.8399 10.3112 1.89173 10.1414 1.76216C9.50148 1.25942 8.52185 1.23869 7.85932 1.68442C7.12884 2.1716 6.85704 3.01123 7.19679 3.75237C7.26474 3.89749 7.22511 3.92341 7.07788 3.97005C5.14126 4.57127 3.81054 5.75296 3.09139 7.49958C2.84223 8.10597 2.72898 8.7331 2.72898 9.38095C2.72898 9.58309 2.84789 9.70747 3.04042 9.72302C3.22729 9.73339 3.36319 9.62455 3.40283 9.42242C3.40849 9.38095 3.40849 9.33949 3.41416 9.29803C3.46512 7.83128 4.08801 6.60294 5.2715 5.6182C6.32475 4.74748 7.57619 4.32249 8.99751 4.31212C9.09944 4.31212 9.15606 4.31212 9.13908 4.44688C9.08245 4.87705 9.08245 5.31241 9.16173 5.74259C9.41655 7.23007 10.2433 8.38066 11.6136 9.19955C12.4574 9.70747 13.3974 9.95107 14.4053 9.97698C14.5695 9.98216 14.5979 10.0288 14.5922 10.1687C14.5809 10.5834 14.5865 10.998 14.5865 11.4074C14.5922 12.1382 14.7677 12.8224 15.1585 13.465C15.4925 14.0196 15.9682 14.455 16.5005 14.8437C16.9875 15.2013 17.2706 15.6626 17.2366 16.2379C17.1913 17.1656 16.4439 17.7979 15.4303 17.8135C15.2717 17.8135 15.1132 17.8135 14.9546 17.8135C10.8152 17.8135 6.67017 17.8135 2.53079 17.8135C1.73235 17.8135 1.08115 17.4351 0.809345 16.8183C0.520551 16.1757 0.69043 15.4915 1.28501 14.9733C1.52284 14.7659 1.79464 14.5845 2.03814 14.3772C3.18765 13.3873 3.51042 12.1279 3.41416 10.744C3.40283 10.5678 3.23861 10.4434 3.06874 10.4538C2.88187 10.4642 2.75729 10.5886 2.74597 10.7907C2.7403 10.9825 2.74597 11.1742 2.74597 11.3712C2.7403 12.0294 2.57609 12.6513 2.20235 13.2214C1.89091 13.6983 1.44922 14.0559 0.979224 14.3928C0.395973 14.8126 0.0562154 15.3672 0.00525167 16.0513C-0.0853504 17.3366 1.00754 18.4147 2.41753 18.4302C3.53873 18.4406 4.65993 18.4354 5.78114 18.4302C5.96234 18.4302 6.00198 18.4769 6.00764 18.6323C6.05294 19.8555 6.97595 20.8765 8.28402 21.1668C8.39727 21.1927 8.52751 21.1719 8.62944 21.2393C8.85594 21.2393 9.08245 21.2393 9.30896 21.2393C9.33727 21.229 9.35992 21.2082 9.38823 21.2082C10.8605 20.9905 11.8741 19.9488 11.9251 18.5857C11.9308 18.425 12.01 18.4302 12.1289 18.4302C13.2501 18.4302 14.3713 18.4406 15.4925 18.4302C17.265 18.4095 18.4088 16.7873 17.7236 15.2842C17.5084 14.8229 17.129 14.5016 16.7157 14.1906C15.7417 13.4599 15.2604 12.5114 15.2717 11.3608C15.2717 10.9462 15.2774 10.5315 15.266 10.1221C15.2604 9.97698 15.3 9.92515 15.4642 9.89924C17.0724 9.62455 18.3125 8.84712 19.1789 7.57214C19.4111 7.22489 19.5923 6.8569 19.7169 6.46301C19.7792 6.26606 19.6999 6.10021 19.513 6.0432C19.3375 5.98618 19.1733 6.06911 19.0827 6.25051C19.0657 6.28679 19.0543 6.32825 19.0374 6.36453C18.2389 8.48432 16.0022 9.68156 13.6069 9.2773C11.0757 8.8523 9.35426 6.50965 9.86956 4.18255C10.2546 2.38928 11.8062 1.02619 13.8051 0.73077ZM8.35197 20.5396C7.34968 20.2649 6.68149 19.4875 6.65884 18.5961C6.65318 18.4561 6.70414 18.425 6.84571 18.4302C7.55354 18.4354 8.26137 18.4354 8.9692 18.4354C9.66004 18.4354 10.3565 18.4406 11.0474 18.4302C11.2116 18.4302 11.2399 18.4717 11.2399 18.6168C11.2059 19.9177 9.71667 20.918 8.35197 20.5396ZM9.34859 3.51915C9.30329 3.6539 9.24667 3.71609 9.08811 3.69018C9.00317 3.67463 8.90691 3.69018 8.81631 3.69018C8.58414 3.685 8.35197 3.71091 8.1198 3.74719C7.99522 3.76274 7.93294 3.72646 7.87631 3.62799C7.58751 3.15116 7.72908 2.54995 8.21607 2.20788C8.68607 1.87618 9.39389 1.91764 9.8016 2.29599C9.88654 2.37373 9.89221 2.43593 9.82992 2.52404C9.6204 2.84019 9.46185 3.17189 9.34859 3.51915Z" fill="black"/>
</svg>
