<svg width="17" height="18" viewBox="0 0 17 18" fill="none" xmlns="http://www.w3.org/2000/svg">
<path d="M13.3751 11.5001C12.9072 11.5025 12.4459 11.6098 12.0251 11.8143C11.6043 12.0187 11.2348 12.3151 10.9438 12.6814L6.37505 9.82513C6.54156 9.28773 6.54156 8.71253 6.37505 8.17513L10.9438 5.31888C11.4075 5.89308 12.0595 6.28461 12.7843 6.42413C13.509 6.56365 14.2598 6.44215 14.9035 6.08114C15.5473 5.72014 16.0425 5.14294 16.3014 4.45178C16.5603 3.76063 16.5662 3.00014 16.3181 2.30502C16.0701 1.60991 15.5839 1.02504 14.9459 0.654021C14.3079 0.283003 13.5591 0.149784 12.8323 0.277963C12.1054 0.406141 11.4474 0.787445 10.9748 1.35433C10.5021 1.92121 10.2454 2.63708 10.2501 3.37513C10.253 3.65461 10.2951 3.93231 10.3751 4.20013L5.8063 7.05638C5.40296 6.54862 4.85164 6.17891 4.22877 5.9985C3.60591 5.81809 2.94234 5.83592 2.33006 6.04951C1.71778 6.2631 1.18711 6.66188 0.811608 7.19057C0.436107 7.71925 0.234375 8.35166 0.234375 9.00013C0.234375 9.6486 0.436107 10.281 0.811608 10.8097C1.18711 11.3384 1.71778 11.7372 2.33006 11.9507C2.94234 12.1643 3.60591 12.1822 4.22877 12.0018C4.85164 11.8213 5.40296 11.4516 5.8063 10.9439L10.3751 13.8001C10.2951 14.0679 10.253 14.3456 10.2501 14.6251C10.2501 15.2432 10.4333 15.8474 10.7767 16.3613C11.1201 16.8752 11.6081 17.2757 12.1792 17.5123C12.7502 17.7488 13.3785 17.8107 13.9847 17.6901C14.5909 17.5695 15.1477 17.2719 15.5848 16.8348C16.0218 16.3978 16.3194 15.841 16.44 15.2348C16.5606 14.6286 16.4987 14.0003 16.2622 13.4292C16.0257 12.8582 15.6251 12.3702 15.1112 12.0268C14.5973 11.6834 13.9931 11.5001 13.3751 11.5001ZM13.3751 1.50013C13.7459 1.50013 14.1084 1.61009 14.4167 1.81612C14.7251 2.02215 14.9654 2.31498 15.1073 2.6576C15.2492 3.00021 15.2864 3.37721 15.214 3.74092C15.1417 4.10464 14.9631 4.43873 14.7009 4.70095C14.4387 4.96318 14.1046 5.14175 13.7408 5.2141C13.3771 5.28645 13.0001 5.24932 12.6575 5.1074C12.3149 4.96549 12.0221 4.72516 11.816 4.41682C11.61 4.10848 11.5001 3.74597 11.5001 3.37513C11.5001 2.87785 11.6976 2.40093 12.0492 2.0493C12.4009 1.69767 12.8778 1.50013 13.3751 1.50013ZM3.37505 10.8751C3.00421 10.8751 2.6417 10.7652 2.33336 10.5591C2.02502 10.3531 1.78469 10.0603 1.64278 9.71766C1.50087 9.37505 1.46373 8.99805 1.53608 8.63433C1.60843 8.27062 1.78701 7.93653 2.04923 7.6743C2.31145 7.41208 2.64555 7.2335 3.00926 7.16116C3.37297 7.08881 3.74997 7.12594 4.09259 7.26785C4.4352 7.40977 4.72803 7.65009 4.93406 7.95843C5.14009 8.26678 5.25005 8.62929 5.25005 9.00013C5.25005 9.49741 5.05251 9.97432 4.70088 10.326C4.34925 10.6776 3.87233 10.8751 3.37505 10.8751ZM13.3751 16.5001C13.0042 16.5001 12.6417 16.3902 12.3334 16.1841C12.025 15.9781 11.7847 15.6853 11.6428 15.3427C11.5009 15 11.4637 14.623 11.5361 14.2593C11.6084 13.8956 11.787 13.5615 12.0492 13.2993C12.3115 13.0371 12.6455 12.8585 13.0093 12.7862C13.373 12.7138 13.75 12.7509 14.0926 12.8929C14.4352 13.0348 14.728 13.2751 14.9341 13.5834C15.1401 13.8918 15.2501 14.2543 15.2501 14.6251C15.2501 15.1224 15.0525 15.5993 14.7009 15.951C14.3492 16.3026 13.8723 16.5001 13.3751 16.5001Z" fill="black"/>
</svg>
