<svg width="20" height="18" viewBox="0 0 20 18" fill="none" xmlns="http://www.w3.org/2000/svg">
<path d="M12.7499 1.8957C12.7499 0.905701 11.5821 0.382285 10.8433 1.03862L6.72467 4.7007C6.59896 4.81269 6.43653 4.87467 6.26817 4.87487H2.89575C2.34906 4.87487 1.82473 5.09191 1.43799 5.47831C1.05125 5.86471 0.833738 6.38884 0.833252 6.93553V11.0578C0.833252 11.6048 1.05055 12.1294 1.43734 12.5162C1.82414 12.903 2.34874 13.1203 2.89575 13.1203H6.26908C6.43744 13.1205 6.59988 13.1825 6.72559 13.2944L10.8423 16.9547C11.5812 17.6119 12.7499 17.0876 12.7499 16.0985V1.8957ZM7.6395 5.72737L11.3749 2.40537V15.5889L7.6395 12.2678C7.26201 11.9319 6.77436 11.7463 6.26908 11.7462H2.89575C2.71342 11.7462 2.53855 11.6738 2.40962 11.5448C2.28068 11.4159 2.20825 11.241 2.20825 11.0587V6.93553C2.20825 6.7532 2.28068 6.57833 2.40962 6.4494C2.53855 6.32047 2.71342 6.24803 2.89575 6.24803H6.26908C6.77424 6.24816 7.26187 6.06289 7.6395 5.72737ZM16.4093 3.40545C16.5557 3.29692 16.7393 3.25102 16.9197 3.27783C17.1 3.30465 17.2623 3.40199 17.3708 3.54845C18.5399 5.12527 19.1697 7.03692 19.1666 8.99987C19.1693 10.9629 18.5393 12.8745 17.3699 14.4513C17.3168 14.5254 17.2494 14.5881 17.1718 14.6359C17.0941 14.6837 17.0078 14.7156 16.9177 14.7297C16.8276 14.7438 16.7356 14.7398 16.6471 14.718C16.5586 14.6962 16.4753 14.6571 16.402 14.6028C16.3288 14.5485 16.2671 14.4802 16.2205 14.4018C16.1739 14.3235 16.1433 14.2366 16.1306 14.1464C16.1179 14.0561 16.1232 13.9642 16.1464 13.876C16.1695 13.7878 16.2099 13.7051 16.2653 13.6327C17.2592 12.2928 17.7944 10.6681 17.7916 8.99987C17.7943 7.33193 17.259 5.70759 16.2653 4.36795C16.2115 4.29533 16.1725 4.21282 16.1506 4.12511C16.1287 4.03741 16.1243 3.94626 16.1377 3.85686C16.1511 3.76745 16.1819 3.68157 16.2285 3.60411C16.2751 3.52665 16.3365 3.45915 16.4093 3.40545ZM14.7143 5.67145C14.7937 5.6284 14.8808 5.6014 14.9706 5.59201C15.0604 5.58262 15.1512 5.59102 15.2378 5.61673C15.3244 5.64244 15.405 5.68495 15.4752 5.74184C15.5453 5.79873 15.6036 5.86888 15.6466 5.94828C16.1379 6.8567 16.4166 7.8962 16.4166 8.99987C16.4181 10.065 16.1534 11.1137 15.6466 12.0505C15.6036 12.13 15.5454 12.2002 15.4753 12.2571C15.4052 12.3141 15.3246 12.3567 15.238 12.3825C15.1514 12.4083 15.0606 12.4168 14.9708 12.4075C14.8809 12.3982 14.7938 12.3713 14.7143 12.3283C14.6349 12.2853 14.5647 12.2271 14.5077 12.157C14.4508 12.0869 14.4082 12.0063 14.3824 11.9197C14.3566 11.8331 14.3481 11.7423 14.3574 11.6525C14.3667 11.5626 14.3936 11.4755 14.4366 11.396C14.8216 10.6838 15.0416 9.86795 15.0416 8.99895C15.0426 8.16231 14.8346 7.33866 14.4366 6.60278C14.35 6.44243 14.3306 6.25426 14.3827 6.07963C14.4348 5.90499 14.5541 5.75818 14.7143 5.67145Z" fill="black"/>
</svg>
